<svg width="69" height="69" viewBox="0 0 69 69" fill="none" xmlns="http://www.w3.org/2000/svg">
<g opacity="0.8">
<path fill-rule="evenodd" clip-rule="evenodd" d="M33 57H22.5L13 37.5C20 32 33.5 10 33.5 2V27.1118C28.6887 27.8355 25 31.987 25 37C25 42.5228 29.4772 47 35 47C40.5229 47 45 42.5228 45 37C45 36.6625 44.9833 36.3289 44.9506 36H44H41.9291H37.8293C37.4175 34.8348 36.3062 34 35 34C33.3432 34 32 35.3431 32 37C32 38.6569 33.3432 40 35 40C35.8885 40 36.6868 39.6138 37.2361 39H41.7101C40.8496 41.8915 38.171 44 35 44C31.134 44 28 40.866 28 37C28 33.134 31.134 30 35 30H36.5V2C36.5 10 50 32 57 37.5L47.5 57H36H33ZM15 64C15 62.3431 16.3432 61 18 61H52C53.6569 61 55 62.3431 55 64C55 65.6569 53.6569 67 52 67H18C16.3432 67 15 65.6569 15 64Z" fill="white"/>
<path d="M22.5 57L22.0505 57.219C22.1343 57.3909 22.3088 57.5 22.5 57.5V57ZM13 37.5L12.6911 37.1068C12.5059 37.2523 12.4474 37.5073 12.5505 37.719L13 37.5ZM34 2C34 1.72386 33.7761 1.5 33.5 1.5C33.2239 1.5 33 1.72386 33 2H34ZM33.5 27.1118L33.5744 27.6062C33.819 27.5694 34 27.3592 34 27.1118H33.5ZM44.9506 36L45.4482 35.9506C45.4228 35.6948 45.2076 35.5 44.9506 35.5V36ZM37.8293 36L37.3579 36.1666C37.4285 36.3664 37.6174 36.5 37.8293 36.5V36ZM37.2361 39V38.5C37.0939 38.5 36.9584 38.5606 36.8635 38.6665L37.2361 39ZM41.7101 39L42.1894 39.1426C42.2344 38.9913 42.2053 38.8276 42.1109 38.7011C42.0166 38.5745 41.868 38.5 41.7101 38.5V39ZM36.5 30V30.5C36.7761 30.5 37 30.2761 37 30H36.5ZM37 2C37 1.72386 36.7761 1.5 36.5 1.5C36.2239 1.5 36 1.72386 36 2H37ZM57 37.5L57.4495 37.719C57.5526 37.5073 57.4941 37.2523 57.3089 37.1068L57 37.5ZM47.5 57V57.5C47.6912 57.5 47.8657 57.3909 47.9495 57.219L47.5 57ZM22.5 57.5H33V56.5H22.5V57.5ZM12.5505 37.719L22.0505 57.219L22.9495 56.781L13.4495 37.281L12.5505 37.719ZM33 2C33 3.89326 32.1919 6.68938 30.8203 9.9548C29.4563 13.2019 27.5615 16.853 25.4446 20.433C23.3282 24.0123 20.995 27.5116 18.7581 30.4553C16.5152 33.4069 14.3899 35.7721 12.6911 37.1068L13.3089 37.8932C15.1101 36.4779 17.2973 34.0306 19.5544 31.0603C21.8175 28.0821 24.1718 24.5502 26.3054 20.942C28.4385 17.3345 30.3562 13.6419 31.7422 10.3421C33.1206 7.06062 34 4.10674 34 2H33ZM34 27.1118V2H33V27.1118H34ZM25.5 37C25.5 32.2381 29.0041 28.2937 33.5744 27.6062L33.4256 26.6173C28.3734 27.3773 24.5 31.7359 24.5 37H25.5ZM35 46.5C29.7533 46.5 25.5 42.2467 25.5 37H24.5C24.5 42.799 29.201 47.5 35 47.5V46.5ZM44.5 37C44.5 42.2467 40.2467 46.5 35 46.5V47.5C40.799 47.5 45.5 42.799 45.5 37H44.5ZM44.4531 36.0494C44.4841 36.3619 44.5 36.679 44.5 37H45.5C45.5 36.646 45.4825 36.2959 45.4482 35.9506L44.4531 36.0494ZM44 36.5H44.9506V35.5H44V36.5ZM41.9291 36.5H44V35.5H41.9291V36.5ZM37.8293 36.5H41.9291V35.5H37.8293V36.5ZM35 34.5C36.0877 34.5 37.0144 35.195 37.3579 36.1666L38.3007 35.8334C37.8205 34.4747 36.5247 33.5 35 33.5V34.5ZM32.5 37C32.5 35.6193 33.6193 34.5 35 34.5V33.5C33.067 33.5 31.5 35.067 31.5 37H32.5ZM35 39.5C33.6193 39.5 32.5 38.3807 32.5 37H31.5C31.5 38.933 33.067 40.5 35 40.5V39.5ZM36.8635 38.6665C36.4051 39.1788 35.7404 39.5 35 39.5V40.5C36.0366 40.5 36.9685 40.0487 37.6087 39.3335L36.8635 38.6665ZM41.7101 38.5H37.2361V39.5H41.7101V38.5ZM35 44.5C38.3983 44.5 41.2674 42.2403 42.1894 39.1426L41.2309 38.8574C40.4317 41.5427 37.9438 43.5 35 43.5V44.5ZM27.5 37C27.5 41.1421 30.8579 44.5 35 44.5V43.5C31.4102 43.5 28.5 40.5899 28.5 37H27.5ZM35 29.5C30.8579 29.5 27.5 32.8579 27.5 37H28.5C28.5 33.4101 31.4102 30.5 35 30.5V29.5ZM35 30.5H36.5V29.5H35V30.5ZM36 2V30H37V2H36ZM57.3089 37.1068C55.6101 35.7721 53.4848 33.4069 51.2419 30.4553C49.005 27.5116 46.6718 24.0123 44.5554 20.433C42.4385 16.853 40.5437 13.2019 39.1797 9.9548C37.8081 6.68938 37 3.89326 37 2H36C36 4.10674 36.8794 7.06062 38.2578 10.3421C39.6438 13.6419 41.5615 17.3345 43.6946 20.942C45.8282 24.5502 48.1825 28.0821 50.4456 31.0603C52.7027 34.0306 54.8899 36.4779 56.6911 37.8932L57.3089 37.1068ZM47.9495 57.219L57.4495 37.719L56.5505 37.281L47.0505 56.781L47.9495 57.219ZM36 57.5H47.5V56.5H36V57.5ZM33 57.5H36V56.5H33V57.5ZM18 60.5C16.067 60.5 14.5 62.067 14.5 64H15.5C15.5 62.6193 16.6193 61.5 18 61.5V60.5ZM52 60.5H18V61.5H52V60.5ZM55.5 64C55.5 62.067 53.933 60.5 52 60.5V61.5C53.3807 61.5 54.5 62.6193 54.5 64H55.5ZM52 67.5C53.933 67.5 55.5 65.933 55.5 64H54.5C54.5 65.3807 53.3807 66.5 52 66.5V67.5ZM18 67.5H52V66.5H18V67.5ZM14.5 64C14.5 65.933 16.067 67.5 18 67.5V66.5C16.6193 66.5 15.5 65.3807 15.5 64H14.5Z" fill="white"/>
</g>
</svg>
