<svg width="32" height="32" viewBox="0 0 412 412" fill="none" xmlns="http://www.w3.org/2000/svg">
<g clip-path="url(#clip0_10_110)">
<g clip-path="url(#clip1_10_110)">
<rect width="412" height="412" rx="93" fill="url(#paint0_radial_10_110)"/>
<g opacity="0.3" filter="url(#filter0_f_10_110)">
<path d="M3.50003 306.5C125.894 297.394 247.714 116.763 259.859 128.84C303.019 171.762 496.19 83.8333 530.578 20.667C564.967 -42.4994 434.432 -78.2097 177.046 -48.2339C-80.3392 -18.2582 -150.519 147.26 -58.2326 142.916C34.0542 138.572 -149.493 317.882 3.50003 306.5Z" fill="url(#paint1_linear_10_110)" fill-opacity="0.5"/>
</g>
<path fill-rule="evenodd" clip-rule="evenodd" d="M196.455 307.75H148.966L106 219.557C137.659 194.682 198.716 95.1818 198.716 59V172.574C176.956 175.847 160.273 194.623 160.273 217.295C160.273 242.274 180.522 262.523 205.5 262.523C230.478 262.523 250.727 242.274 250.727 217.295C250.727 215.769 250.652 214.26 250.504 212.773H246.205H236.839H218.296C216.434 207.503 211.408 203.727 205.5 203.727C198.007 203.727 191.932 209.802 191.932 217.295C191.932 224.789 198.007 230.864 205.5 230.864C209.518 230.864 213.129 229.117 215.613 226.341H235.848C231.956 239.418 219.842 248.954 205.5 248.954C188.015 248.954 173.841 234.78 173.841 217.295C173.841 199.811 188.015 185.636 205.5 185.636C205.52 185.636 205.539 185.636 205.559 185.636L212.284 185.636V59C212.284 95.1818 273.341 194.682 305 219.557L262.034 307.75H210.023H196.455ZM115.045 329.841C115.045 327.632 116.836 325.841 119.045 325.841H291.955C294.164 325.841 295.955 327.632 295.955 329.841V348.977C295.955 351.186 294.164 352.977 291.955 352.977H119.045C116.836 352.977 115.045 351.186 115.045 348.977V329.841Z" fill="white"/>
<path d="M148.966 307.75L147.168 308.626C147.503 309.314 148.201 309.75 148.966 309.75V307.75ZM106 219.557L104.764 217.984C104.024 218.566 103.789 219.586 104.202 220.433L106 219.557ZM200.716 59C200.716 57.8954 199.82 57 198.716 57C197.611 57 196.716 57.8954 196.716 59H200.716ZM198.716 172.574L199.013 174.551C199.992 174.404 200.716 173.563 200.716 172.574H198.716ZM250.504 212.773L252.494 212.575C252.393 211.552 251.532 210.773 250.504 210.773V212.773ZM218.296 212.773L216.41 213.439C216.693 214.238 217.449 214.773 218.296 214.773V212.773ZM215.613 226.341V224.341C215.044 224.341 214.502 224.583 214.123 225.007L215.613 226.341ZM235.848 226.341L237.765 226.911C237.945 226.306 237.829 225.651 237.451 225.145C237.074 224.639 236.48 224.341 235.848 224.341V226.341ZM205.559 185.636L205.555 187.636L205.559 187.636L205.559 185.636ZM212.284 185.636L212.284 187.636C212.815 187.636 213.323 187.426 213.698 187.051C214.073 186.676 214.284 186.167 214.284 185.636H212.284ZM214.284 59C214.284 57.8954 213.389 57 212.284 57C211.18 57 210.284 57.8954 210.284 59H214.284ZM305 219.557L306.798 220.433C307.211 219.586 306.976 218.566 306.236 217.984L305 219.557ZM262.034 307.75V309.75C262.799 309.75 263.497 309.314 263.832 308.626L262.034 307.75ZM148.966 309.75H196.455V305.75H148.966V309.75ZM104.202 220.433L147.168 308.626L150.764 306.874L107.798 218.681L104.202 220.433ZM196.716 59C196.716 67.6185 193.042 80.3058 186.837 95.0786C180.663 109.778 172.087 126.302 162.509 142.501C152.932 158.696 142.374 174.531 132.251 187.854C122.103 201.208 112.474 211.926 104.764 217.984L107.236 221.129C115.355 214.75 125.231 203.703 135.435 190.274C145.664 176.813 156.307 160.848 165.952 144.536C175.595 128.228 184.262 111.538 190.525 96.6277C196.757 81.7908 200.716 68.4724 200.716 59H196.716ZM200.716 172.574V59H196.716V172.574H200.716ZM162.273 217.295C162.273 195.627 178.217 177.68 199.013 174.551L198.418 170.596C175.694 174.014 158.273 193.618 158.273 217.295H162.273ZM205.5 260.523C181.626 260.523 162.273 241.169 162.273 217.295H158.273C158.273 243.378 179.417 264.523 205.5 264.523V260.523ZM248.727 217.295C248.727 241.169 229.374 260.523 205.5 260.523V264.523C231.583 264.523 252.727 243.378 252.727 217.295H248.727ZM248.514 212.97C248.655 214.392 248.727 215.835 248.727 217.295H252.727C252.727 215.703 252.648 214.128 252.494 212.575L248.514 212.97ZM246.205 214.773H250.504V210.773H246.205V214.773ZM236.839 214.773H246.205V210.773H236.839V214.773ZM218.296 214.773H236.839V210.773H218.296V214.773ZM205.5 205.727C210.534 205.727 214.821 208.943 216.41 213.439L220.182 212.106C218.046 206.062 212.282 201.727 205.5 201.727V205.727ZM193.932 217.295C193.932 210.906 199.111 205.727 205.5 205.727V201.727C196.902 201.727 189.932 208.697 189.932 217.295H193.932ZM205.5 228.864C199.111 228.864 193.932 223.684 193.932 217.295H189.932C189.932 225.893 196.902 232.864 205.5 232.864V228.864ZM214.123 225.007C212.002 227.377 208.926 228.864 205.5 228.864V232.864C210.111 232.864 214.256 230.856 217.104 227.675L214.123 225.007ZM235.848 224.341H215.613V228.341H235.848V224.341ZM205.5 250.954C220.751 250.954 233.628 240.813 237.765 226.911L233.931 225.77C230.285 238.023 218.933 246.954 205.5 246.954V250.954ZM171.841 217.295C171.841 235.885 186.911 250.954 205.5 250.954V246.954C189.12 246.954 175.841 233.676 175.841 217.295H171.841ZM205.5 183.636C186.911 183.636 171.841 198.706 171.841 217.295H175.841C175.841 200.915 189.12 187.636 205.5 187.636V183.636ZM205.563 183.636C205.542 183.636 205.521 183.636 205.5 183.636V187.636C205.519 187.636 205.537 187.636 205.555 187.636L205.563 183.636ZM205.559 187.636L212.284 187.636L212.284 183.636L205.559 183.636L205.559 187.636ZM210.284 59V185.636H214.284V59H210.284ZM306.236 217.984C298.526 211.926 288.897 201.208 278.749 187.854C268.626 174.531 258.068 158.696 248.491 142.501C238.913 126.302 230.337 109.778 224.163 95.0786C217.958 80.3058 214.284 67.6185 214.284 59H210.284C210.284 68.4724 214.243 81.7908 220.475 96.6277C226.738 111.538 235.405 128.228 245.048 144.536C254.693 160.848 265.336 176.813 275.565 190.274C285.769 203.703 295.645 214.75 303.764 221.129L306.236 217.984ZM263.832 308.626L306.798 220.433L303.202 218.681L260.236 306.874L263.832 308.626ZM210.023 309.75H262.034V305.75H210.023V309.75ZM196.455 309.75H210.023V305.75H196.455V309.75ZM119.045 323.841C115.732 323.841 113.045 326.527 113.045 329.841H117.045C117.045 328.736 117.941 327.841 119.045 327.841V323.841ZM291.955 323.841H119.045V327.841H291.955V323.841ZM297.955 329.841C297.955 326.527 295.268 323.841 291.955 323.841V327.841C293.059 327.841 293.955 328.736 293.955 329.841H297.955ZM297.955 348.977V329.841H293.955V348.977H297.955ZM291.955 354.977C295.268 354.977 297.955 352.291 297.955 348.977H293.955C293.955 350.082 293.059 350.977 291.955 350.977V354.977ZM119.045 354.977H291.955V350.977H119.045V354.977ZM113.045 348.977C113.045 352.291 115.732 354.977 119.045 354.977V350.977C117.941 350.977 117.045 350.082 117.045 348.977H113.045ZM113.045 329.841V348.977H117.045V329.841H113.045Z" fill="white"/>
</g>
</g>
<defs>
<filter id="filter0_f_10_110" x="-191" y="-153" width="821" height="554.02" filterUnits="userSpaceOnUse" color-interpolation-filters="sRGB">
<feFlood flood-opacity="0" result="BackgroundImageFix"/>
<feBlend mode="normal" in="SourceGraphic" in2="BackgroundImageFix" result="shape"/>
<feGaussianBlur stdDeviation="47" result="effect1_foregroundBlur_10_110"/>
</filter>
<radialGradient id="paint0_radial_10_110" cx="0" cy="0" r="1" gradientUnits="userSpaceOnUse" gradientTransform="translate(206) rotate(90) scale(412)">
<stop stop-color="#131724"/>
<stop offset="1" stop-color="#0F1013"/>
</radialGradient>
<linearGradient id="paint1_linear_10_110" x1="-49.0045" y1="124.035" x2="46.4102" y2="-164.835" gradientUnits="userSpaceOnUse">
<stop offset="0.0677083" stop-color="#58B4FF" stop-opacity="0.4"/>
<stop offset="0.364583" stop-color="#3DD5FF"/>
<stop offset="0.572917" stop-color="#29BFA6"/>
<stop offset="0.979167" stop-color="#35F2FF"/>
</linearGradient>
<clipPath id="clip0_10_110">
<rect width="412" height="412" fill="white"/>
</clipPath>
<clipPath id="clip1_10_110">
<rect width="412" height="412" rx="93" fill="white"/>
</clipPath>
</defs>
</svg>
